<?xml version="1.0" encoding="UTF-8" standalone="no"?>
<!DOCTYPE svg PUBLIC "-//W3C//DTD SVG 1.1//EN" "http://www.w3.org/Graphics/SVG/1.1/DTD/svg11.dtd">
<svg width="100%" height="100%" viewBox="0 0 24 24" version="1.1" xmlns="http://www.w3.org/2000/svg" xmlns:xlink="http://www.w3.org/1999/xlink" xml:space="preserve" xmlns:serif="http://www.serif.com/" style="fill-rule:evenodd;clip-rule:evenodd;stroke-linejoin:round;stroke-miterlimit:2;">
    <g>
        <path d="M12,6.865C9.183,6.865 6.866,9.183 6.866,12C6.866,14.817 9.183,17.135 12,17.135C14.817,17.135 17.135,14.817 17.135,12C17.135,12 17.135,12 17.135,12C17.135,9.183 14.817,6.865 12,6.865C12,6.865 12,6.865 12,6.865ZM12,15.334C10.172,15.334 8.667,13.829 8.667,12C8.667,10.171 10.172,8.666 12,8.666C13.829,8.666 15.334,10.171 15.334,12L15.334,12C15.334,13.829 13.829,15.334 12.001,15.334C12.001,15.334 12.001,15.334 12,15.334Z" style="fill:rgb(226,214,255);fill-rule:nonzero;"/>
        <path d="M21.94,7.877C21.923,7.048 21.766,6.227 21.475,5.45C21.224,4.783 20.83,4.178 20.322,3.678C19.823,3.17 19.218,2.776 18.551,2.525C17.774,2.234 16.954,2.077 16.124,2.061C15.058,2.012 14.717,2 12.001,2C9.286,2 8.944,2.011 7.878,2.061C7.048,2.077 6.227,2.234 5.45,2.525C4.783,2.776 4.178,3.17 3.679,3.678C3.17,4.178 2.776,4.782 2.525,5.45C2.234,6.227 2.077,7.048 2.061,7.877C2.012,8.943 2,9.284 2,12C2,14.716 2.012,15.057 2.061,16.123C2.077,16.952 2.234,17.773 2.525,18.55C2.776,19.218 3.17,19.822 3.679,20.322C4.179,20.83 4.783,21.223 5.45,21.475C6.227,21.766 7.048,21.923 7.878,21.939C8.944,21.988 9.285,22 12,22C14.716,22 15.057,21.989 16.123,21.939C16.953,21.923 17.773,21.766 18.55,21.475C19.893,20.956 20.956,19.893 21.475,18.55C21.767,17.773 21.924,16.952 21.94,16.123C21.988,15.056 22,14.716 22,12C22,9.284 21.988,8.943 21.94,7.877ZM20.141,16.041C20.133,16.675 20.017,17.304 19.797,17.898C19.46,18.77 18.77,19.46 17.899,19.796C17.304,20.016 16.676,20.133 16.042,20.14C14.987,20.188 14.671,20.198 12,20.198C9.33,20.198 9.014,20.188 7.96,20.14C7.326,20.132 6.698,20.016 6.103,19.796C5.669,19.635 5.276,19.38 4.953,19.048C4.621,18.726 4.365,18.333 4.205,17.898C3.985,17.304 3.868,16.675 3.861,16.041C3.813,14.987 3.803,14.671 3.803,12C3.803,9.33 3.813,9.014 3.861,7.959C3.869,7.325 3.985,6.697 4.205,6.102C4.366,5.668 4.621,5.275 4.953,4.952C5.275,4.619 5.669,4.363 6.103,4.204C6.698,3.983 7.326,3.867 7.96,3.86C9.014,3.811 9.331,3.801 12,3.801C14.67,3.801 14.987,3.812 16.042,3.86C16.676,3.868 17.304,3.984 17.899,4.204C18.771,4.54 19.461,5.23 19.797,6.102C20.017,6.697 20.134,7.325 20.141,7.959C20.189,9.014 20.199,9.33 20.199,12C20.199,14.671 20.189,14.986 20.141,16.041L20.141,16.041Z" style="fill:rgb(226,214,255);fill-rule:nonzero;"/>
        <path d="M17.339,5.462L17.339,5.462C16.68,5.462 16.139,6.004 16.139,6.662C16.139,7.32 16.681,7.862 17.339,7.862C17.997,7.862 18.539,7.32 18.539,6.662C18.539,6.004 17.997,5.462 17.339,5.462Z" style="fill:rgb(226,214,255);fill-rule:nonzero;"/>
    </g>
</svg>
