<?xml version="1.0" encoding="UTF-8" standalone="no"?>
<!DOCTYPE svg PUBLIC "-//W3C//DTD SVG 1.1//EN" "http://www.w3.org/Graphics/SVG/1.1/DTD/svg11.dtd">
<svg width="100%" height="100%" viewBox="0 0 512 512" version="1.1" xmlns="http://www.w3.org/2000/svg" xmlns:xlink="http://www.w3.org/1999/xlink" xml:space="preserve" xmlns:serif="http://www.serif.com/" style="fill-rule:evenodd;clip-rule:evenodd;stroke-linejoin:round;stroke-miterlimit:2;">
    <g>
        <path d="M405,57C405,30.668 383.332,9 357,9L156,9C129.668,9 108,30.668 108,57L108,455C108,481.332 129.668,503 156,503L357,503C383.332,503 405,481.332 405,455L405,57ZM155.652,29L356.352,29C371.526,29.02 384.001,41.512 384.001,56.686C384.001,56.771 384.001,56.856 384,56.941L384,79L128,79L128,56.941C127.999,56.856 127.999,56.771 127.999,56.686C127.999,41.51 140.476,29.018 155.652,29ZM384,99L384,387L128,387L128,99L384,99ZM356.348,483L155.648,483C140.474,482.98 127.999,470.488 127.999,455.314C127.999,455.229 127.999,455.144 128,455.059L128,407L384,407L384,455.059C384.001,455.144 384.001,455.229 384.001,455.314C384.001,470.49 371.524,482.982 356.348,483Z" style="fill:rgb(226,214,255);fill-rule:nonzero;"/>
        <path d="M242.454,67L270.083,67C275.569,67 280.083,62.486 280.083,57C280.083,51.514 275.569,47 270.083,47L242.454,47C236.968,47 232.454,51.514 232.454,57C232.454,62.486 236.968,67 242.454,67Z" style="fill:rgb(226,214,255);fill-rule:nonzero;"/>
        <rect x="140" y="109" width="234" height="269" style="fill:rgb(226,214,255);fill-opacity:0.19;"/>
    </g>
</svg>
