<?xml version="1.0" encoding="UTF-8" standalone="no"?>
<!DOCTYPE svg PUBLIC "-//W3C//DTD SVG 1.1//EN" "http://www.w3.org/Graphics/SVG/1.1/DTD/svg11.dtd">
<svg width="100%" height="100%" viewBox="0 0 24 24" version="1.1" xmlns="http://www.w3.org/2000/svg" xmlns:xlink="http://www.w3.org/1999/xlink" xml:space="preserve" xmlns:serif="http://www.serif.com/" style="fill-rule:evenodd;clip-rule:evenodd;stroke-linejoin:round;stroke-miterlimit:2;">
    <path d="M15.663,11.775C13.646,10.697 11.715,9.697 9.741,8.663L9.741,14.853C11.818,13.723 14.008,12.689 15.672,11.766L15.663,11.775Z" style="fill:rgb(226,214,255);fill-opacity:0.56;fill-rule:nonzero;"/>
    <path d="M22.974,9.715C23.02,8.283 22.706,6.863 22.06,5.585C21.629,5.052 21.02,4.691 20.345,4.568C17.573,4.327 14.79,4.229 12.008,4.275C9.226,4.229 6.444,4.327 3.672,4.568C3.123,4.67 2.614,4.928 2.206,5.309C1.311,6.138 1.246,7.56 1.111,8.758C0.964,10.916 0.964,13.082 1.111,15.24C1.136,15.916 1.237,16.587 1.413,17.24C1.532,17.746 1.775,18.214 2.12,18.603C2.528,19.005 3.048,19.275 3.611,19.378C5.767,19.645 7.94,19.755 10.112,19.706L10.112,19.706C13.606,19.762 16.684,19.703 20.31,19.43C20.889,19.331 21.425,19.057 21.844,18.646C22.117,18.374 22.324,18.044 22.448,17.68C22.81,16.585 22.987,15.437 22.974,14.284C23.008,13.689 23.008,10.31 22.974,9.715ZM15.664,11.775C15.662,11.774 15.661,11.774 15.66,11.773C14.831,12.232 13.872,12.719 12.862,13.232C11.846,13.747 10.78,14.288 9.741,14.853L9.741,8.663C10.728,9.18 11.704,9.689 12.686,10.203C13.667,10.716 14.653,11.235 15.66,11.773C15.664,11.771 15.668,11.768 15.672,11.766L15.664,11.775Z" style="fill:rgb(226,214,255);fill-rule:nonzero;"/>
</svg>
